<mxfile host="Electron" agent="Mozilla/5.0 (X11; Linux x86_64) AppleWebKit/537.36 (KHTML, like Gecko) draw.io/27.0.9 Chrome/134.0.6998.205 Electron/35.4.0 Safari/537.36" version="27.0.9">
  <diagram name="Page-1" id="zF-ldZ9x6v1s6mkZ4p7j">
    <mxGraphModel dx="2354" dy="1135" grid="1" gridSize="10" guides="1" tooltips="1" connect="1" arrows="1" fold="1" page="1" pageScale="1" pageWidth="850" pageHeight="1100" math="0" shadow="0">
      <root>
        <mxCell id="0" />
        <mxCell id="1" parent="0" />
        <mxCell id="RHhL-44xYjDqkGJMa5_Y-1" value="Финтех-инженер" style="html=1;dashed=0;whiteSpace=wrap;fillColor=#f5f5f5;fontColor=#333333;strokeColor=#666666;" vertex="1" parent="1">
          <mxGeometry x="180" y="240" width="100" height="50" as="geometry" />
        </mxCell>
        <mxCell id="RHhL-44xYjDqkGJMa5_Y-2" value="Клинический домен" style="html=1;dashed=0;whiteSpace=wrap;" vertex="1" parent="1">
          <mxGeometry x="-120" y="420" width="100" height="50" as="geometry" />
        </mxCell>
        <mxCell id="RHhL-44xYjDqkGJMa5_Y-4" value="ИИ-инженер" style="html=1;dashed=0;whiteSpace=wrap;fillColor=#f5f5f5;fontColor=#333333;strokeColor=#666666;" vertex="1" parent="1">
          <mxGeometry x="440" y="240" width="100" height="50" as="geometry" />
        </mxCell>
        <mxCell id="RHhL-44xYjDqkGJMa5_Y-5" value="Бизнес-пользователь" style="html=1;dashed=0;whiteSpace=wrap;fillColor=#f5f5f5;fontColor=#333333;strokeColor=#666666;" vertex="1" parent="1">
          <mxGeometry x="580" y="720" width="100" height="50" as="geometry" />
        </mxCell>
        <mxCell id="RHhL-44xYjDqkGJMa5_Y-6" value="Оператор клиники" style="html=1;dashed=0;whiteSpace=wrap;fillColor=#f5f5f5;fontColor=#333333;strokeColor=#666666;" vertex="1" parent="1">
          <mxGeometry x="-120" y="240" width="100" height="50" as="geometry" />
        </mxCell>
        <mxCell id="RHhL-44xYjDqkGJMa5_Y-7" value="" style="endArrow=classic;html=1;rounded=0;exitX=0.5;exitY=1;exitDx=0;exitDy=0;" edge="1" parent="1" source="RHhL-44xYjDqkGJMa5_Y-6" target="RHhL-44xYjDqkGJMa5_Y-2">
          <mxGeometry width="50" height="50" relative="1" as="geometry">
            <mxPoint x="400" y="610" as="sourcePoint" />
            <mxPoint x="450" y="560" as="targetPoint" />
          </mxGeometry>
        </mxCell>
        <mxCell id="RHhL-44xYjDqkGJMa5_Y-8" value="ввод мед.данныз&lt;div&gt;(без изображений)&lt;/div&gt;" style="edgeLabel;html=1;align=center;verticalAlign=middle;resizable=0;points=[];" vertex="1" connectable="0" parent="RHhL-44xYjDqkGJMa5_Y-7">
          <mxGeometry x="-0.0923" y="1" relative="1" as="geometry">
            <mxPoint as="offset" />
          </mxGeometry>
        </mxCell>
        <mxCell id="RHhL-44xYjDqkGJMa5_Y-9" value="Операционный домен" style="html=1;dashed=0;whiteSpace=wrap;" vertex="1" parent="1">
          <mxGeometry x="-240" y="600" width="100" height="50" as="geometry" />
        </mxCell>
        <mxCell id="RHhL-44xYjDqkGJMa5_Y-11" value="Финансовый домен" style="html=1;dashed=0;whiteSpace=wrap;" vertex="1" parent="1">
          <mxGeometry x="180" y="420" width="100" height="50" as="geometry" />
        </mxCell>
        <mxCell id="RHhL-44xYjDqkGJMa5_Y-12" value="" style="endArrow=classic;html=1;rounded=0;exitX=0;exitY=0.5;exitDx=0;exitDy=0;entryX=0.5;entryY=0;entryDx=0;entryDy=0;" edge="1" parent="1" source="RHhL-44xYjDqkGJMa5_Y-2" target="RHhL-44xYjDqkGJMa5_Y-9">
          <mxGeometry width="50" height="50" relative="1" as="geometry">
            <mxPoint x="400" y="610" as="sourcePoint" />
            <mxPoint x="450" y="560" as="targetPoint" />
            <Array as="points">
              <mxPoint x="-190" y="445" />
            </Array>
          </mxGeometry>
        </mxCell>
        <mxCell id="RHhL-44xYjDqkGJMa5_Y-13" value="сведения о приёмах,&lt;div&gt;инвентаризации,&lt;/div&gt;&lt;div&gt;персонале&lt;/div&gt;" style="edgeLabel;html=1;align=center;verticalAlign=middle;resizable=0;points=[];" vertex="1" connectable="0" parent="RHhL-44xYjDqkGJMa5_Y-12">
          <mxGeometry x="0.2889" relative="1" as="geometry">
            <mxPoint as="offset" />
          </mxGeometry>
        </mxCell>
        <mxCell id="RHhL-44xYjDqkGJMa5_Y-14" value="ИИ-домен" style="html=1;dashed=0;whiteSpace=wrap;" vertex="1" parent="1">
          <mxGeometry x="440" y="420" width="100" height="50" as="geometry" />
        </mxCell>
        <mxCell id="RHhL-44xYjDqkGJMa5_Y-15" value="" style="endArrow=classic;html=1;rounded=0;exitX=0.5;exitY=1;exitDx=0;exitDy=0;" edge="1" parent="1" source="RHhL-44xYjDqkGJMa5_Y-1" target="RHhL-44xYjDqkGJMa5_Y-11">
          <mxGeometry width="50" height="50" relative="1" as="geometry">
            <mxPoint x="400" y="610" as="sourcePoint" />
            <mxPoint x="450" y="560" as="targetPoint" />
          </mxGeometry>
        </mxCell>
        <mxCell id="RHhL-44xYjDqkGJMa5_Y-17" value="Запросы&lt;div&gt;API/ данные&lt;/div&gt;" style="edgeLabel;html=1;align=center;verticalAlign=middle;resizable=0;points=[];" vertex="1" connectable="0" parent="RHhL-44xYjDqkGJMa5_Y-15">
          <mxGeometry x="-0.2615" y="-1" relative="1" as="geometry">
            <mxPoint as="offset" />
          </mxGeometry>
        </mxCell>
        <mxCell id="RHhL-44xYjDqkGJMa5_Y-16" value="" style="endArrow=classic;html=1;rounded=0;exitX=0.5;exitY=1;exitDx=0;exitDy=0;" edge="1" parent="1" source="RHhL-44xYjDqkGJMa5_Y-4" target="RHhL-44xYjDqkGJMa5_Y-14">
          <mxGeometry width="50" height="50" relative="1" as="geometry">
            <mxPoint x="400" y="610" as="sourcePoint" />
            <mxPoint x="450" y="560" as="targetPoint" />
          </mxGeometry>
        </mxCell>
        <mxCell id="RHhL-44xYjDqkGJMa5_Y-19" value="Обучение моделей&lt;div&gt;(через обогащение&lt;/div&gt;&lt;div&gt;данных)&lt;/div&gt;" style="edgeLabel;html=1;align=center;verticalAlign=middle;resizable=0;points=[];" vertex="1" connectable="0" parent="RHhL-44xYjDqkGJMa5_Y-16">
          <mxGeometry x="-0.1231" relative="1" as="geometry">
            <mxPoint as="offset" />
          </mxGeometry>
        </mxCell>
        <mxCell id="RHhL-44xYjDqkGJMa5_Y-20" value="" style="html=1;dashed=0;whiteSpace=wrap;" vertex="1" parent="1">
          <mxGeometry x="70" y="600" width="450" height="330" as="geometry" />
        </mxCell>
        <mxCell id="RHhL-44xYjDqkGJMa5_Y-21" value="DataLake" style="html=1;dashed=0;whiteSpace=wrap;fillColor=#dae8fc;strokeColor=#6c8ebf;" vertex="1" parent="1">
          <mxGeometry x="80" y="610" width="100" height="50" as="geometry" />
        </mxCell>
        <mxCell id="RHhL-44xYjDqkGJMa5_Y-22" value="Catalog&lt;span style=&quot;color: rgba(0, 0, 0, 0); font-family: monospace; font-size: 0px; text-align: start; text-wrap-mode: nowrap;&quot;&gt;%3CmxGraphModel%3E%3Croot%3E%3CmxCell%20id%3D%220%22%2F%3E%3CmxCell%20id%3D%221%22%20parent%3D%220%22%2F%3E%3CmxCell%20id%3D%222%22%20value%3D%22DataLake%22%20style%3D%22html%3D1%3Bdashed%3D0%3BwhiteSpace%3Dwrap%3BfillColor%3D%23dae8fc%3BstrokeColor%3D%236c8ebf%3B%22%20vertex%3D%221%22%20parent%3D%221%22%3E%3CmxGeometry%20x%3D%22100%22%20y%3D%22630%22%20width%3D%22100%22%20height%3D%2250%22%20as%3D%22geometry%22%2F%3E%3C%2FmxCell%3E%3C%2Froot%3E%3C%2FmxGraphModel%3E&lt;/span&gt;" style="html=1;dashed=0;whiteSpace=wrap;fillColor=#dae8fc;strokeColor=#6c8ebf;" vertex="1" parent="1">
          <mxGeometry x="410" y="610" width="100" height="50" as="geometry" />
        </mxCell>
        <mxCell id="RHhL-44xYjDqkGJMa5_Y-23" value="DWH" style="html=1;dashed=0;whiteSpace=wrap;fillColor=#dae8fc;strokeColor=#6c8ebf;" vertex="1" parent="1">
          <mxGeometry x="80" y="730" width="100" height="50" as="geometry" />
        </mxCell>
        <mxCell id="RHhL-44xYjDqkGJMa5_Y-24" value="DataMarts" style="html=1;dashed=0;whiteSpace=wrap;fillColor=#dae8fc;strokeColor=#6c8ebf;" vertex="1" parent="1">
          <mxGeometry x="410" y="730" width="100" height="50" as="geometry" />
        </mxCell>
        <mxCell id="RHhL-44xYjDqkGJMa5_Y-25" value="BI" style="html=1;dashed=0;whiteSpace=wrap;fillColor=#dae8fc;strokeColor=#6c8ebf;" vertex="1" parent="1">
          <mxGeometry x="410" y="870" width="100" height="50" as="geometry" />
        </mxCell>
        <mxCell id="RHhL-44xYjDqkGJMa5_Y-26" value="" style="endArrow=classic;html=1;rounded=0;exitX=1;exitY=0.5;exitDx=0;exitDy=0;entryX=0.5;entryY=0;entryDx=0;entryDy=0;" edge="1" parent="1" source="RHhL-44xYjDqkGJMa5_Y-22" target="RHhL-44xYjDqkGJMa5_Y-5">
          <mxGeometry width="50" height="50" relative="1" as="geometry">
            <mxPoint x="400" y="730" as="sourcePoint" />
            <mxPoint x="450" y="680" as="targetPoint" />
            <Array as="points">
              <mxPoint x="630" y="635" />
            </Array>
          </mxGeometry>
        </mxCell>
        <mxCell id="RHhL-44xYjDqkGJMa5_Y-27" value="навигация&lt;div&gt;по данным&lt;/div&gt;" style="edgeLabel;html=1;align=center;verticalAlign=middle;resizable=0;points=[];" vertex="1" connectable="0" parent="RHhL-44xYjDqkGJMa5_Y-26">
          <mxGeometry x="0.4537" y="-1" relative="1" as="geometry">
            <mxPoint as="offset" />
          </mxGeometry>
        </mxCell>
        <mxCell id="RHhL-44xYjDqkGJMa5_Y-28" value="" style="endArrow=classic;html=1;rounded=0;exitX=0.5;exitY=1;exitDx=0;exitDy=0;entryX=1;entryY=0.5;entryDx=0;entryDy=0;" edge="1" parent="1" source="RHhL-44xYjDqkGJMa5_Y-5" target="RHhL-44xYjDqkGJMa5_Y-25">
          <mxGeometry width="50" height="50" relative="1" as="geometry">
            <mxPoint x="400" y="730" as="sourcePoint" />
            <mxPoint x="450" y="680" as="targetPoint" />
            <Array as="points">
              <mxPoint x="630" y="895" />
            </Array>
          </mxGeometry>
        </mxCell>
        <mxCell id="RHhL-44xYjDqkGJMa5_Y-29" value="витрина&lt;div&gt;самообслуживания&lt;/div&gt;" style="edgeLabel;html=1;align=center;verticalAlign=middle;resizable=0;points=[];" vertex="1" connectable="0" parent="RHhL-44xYjDqkGJMa5_Y-28">
          <mxGeometry x="-0.6082" relative="1" as="geometry">
            <mxPoint as="offset" />
          </mxGeometry>
        </mxCell>
        <mxCell id="RHhL-44xYjDqkGJMa5_Y-30" value="" style="endArrow=classic;html=1;rounded=0;exitX=0.5;exitY=1;exitDx=0;exitDy=0;" edge="1" parent="1" source="RHhL-44xYjDqkGJMa5_Y-24" target="RHhL-44xYjDqkGJMa5_Y-25">
          <mxGeometry width="50" height="50" relative="1" as="geometry">
            <mxPoint x="400" y="730" as="sourcePoint" />
            <mxPoint x="450" y="680" as="targetPoint" />
          </mxGeometry>
        </mxCell>
        <mxCell id="RHhL-44xYjDqkGJMa5_Y-31" value="BI и&lt;div&gt;отчёты&lt;/div&gt;" style="edgeLabel;html=1;align=center;verticalAlign=middle;resizable=0;points=[];" vertex="1" connectable="0" parent="RHhL-44xYjDqkGJMa5_Y-30">
          <mxGeometry x="-0.2889" y="-1" relative="1" as="geometry">
            <mxPoint as="offset" />
          </mxGeometry>
        </mxCell>
        <mxCell id="RHhL-44xYjDqkGJMa5_Y-32" value="" style="endArrow=classic;html=1;rounded=0;exitX=1;exitY=0.5;exitDx=0;exitDy=0;entryX=0;entryY=0.5;entryDx=0;entryDy=0;" edge="1" parent="1" source="RHhL-44xYjDqkGJMa5_Y-23" target="RHhL-44xYjDqkGJMa5_Y-24">
          <mxGeometry width="50" height="50" relative="1" as="geometry">
            <mxPoint x="400" y="730" as="sourcePoint" />
            <mxPoint x="450" y="680" as="targetPoint" />
          </mxGeometry>
        </mxCell>
        <mxCell id="RHhL-44xYjDqkGJMa5_Y-33" value="выгрузка ветрин" style="edgeLabel;html=1;align=center;verticalAlign=middle;resizable=0;points=[];" vertex="1" connectable="0" parent="RHhL-44xYjDqkGJMa5_Y-32">
          <mxGeometry x="-0.1391" y="-3" relative="1" as="geometry">
            <mxPoint as="offset" />
          </mxGeometry>
        </mxCell>
        <mxCell id="RHhL-44xYjDqkGJMa5_Y-34" value="" style="endArrow=classic;html=1;rounded=0;exitX=0.5;exitY=1;exitDx=0;exitDy=0;" edge="1" parent="1" source="RHhL-44xYjDqkGJMa5_Y-21" target="RHhL-44xYjDqkGJMa5_Y-23">
          <mxGeometry width="50" height="50" relative="1" as="geometry">
            <mxPoint x="400" y="730" as="sourcePoint" />
            <mxPoint x="450" y="680" as="targetPoint" />
          </mxGeometry>
        </mxCell>
        <mxCell id="RHhL-44xYjDqkGJMa5_Y-35" value="обогащение,&lt;div&gt;очистка&lt;/div&gt;" style="edgeLabel;html=1;align=center;verticalAlign=middle;resizable=0;points=[];" vertex="1" connectable="0" parent="RHhL-44xYjDqkGJMa5_Y-34">
          <mxGeometry x="-0.2286" relative="1" as="geometry">
            <mxPoint as="offset" />
          </mxGeometry>
        </mxCell>
        <mxCell id="RHhL-44xYjDqkGJMa5_Y-36" value="" style="endArrow=classic;html=1;rounded=0;exitX=1;exitY=0.5;exitDx=0;exitDy=0;entryX=0;entryY=0.25;entryDx=0;entryDy=0;" edge="1" parent="1" source="RHhL-44xYjDqkGJMa5_Y-9" target="RHhL-44xYjDqkGJMa5_Y-21">
          <mxGeometry width="50" height="50" relative="1" as="geometry">
            <mxPoint x="400" y="610" as="sourcePoint" />
            <mxPoint x="450" y="560" as="targetPoint" />
          </mxGeometry>
        </mxCell>
        <mxCell id="RHhL-44xYjDqkGJMa5_Y-37" value="расписание,&lt;div&gt;сотрудники,&lt;/div&gt;&lt;div&gt;статистика&lt;/div&gt;" style="edgeLabel;html=1;align=center;verticalAlign=middle;resizable=0;points=[];" vertex="1" connectable="0" parent="RHhL-44xYjDqkGJMa5_Y-36">
          <mxGeometry x="-0.2362" y="2" relative="1" as="geometry">
            <mxPoint as="offset" />
          </mxGeometry>
        </mxCell>
        <mxCell id="RHhL-44xYjDqkGJMa5_Y-38" value="" style="endArrow=classic;html=1;rounded=0;exitX=0.42;exitY=1.02;exitDx=0;exitDy=0;exitPerimeter=0;entryX=1;entryY=0.5;entryDx=0;entryDy=0;" edge="1" parent="1" source="RHhL-44xYjDqkGJMa5_Y-14" target="RHhL-44xYjDqkGJMa5_Y-21">
          <mxGeometry width="50" height="50" relative="1" as="geometry">
            <mxPoint x="400" y="610" as="sourcePoint" />
            <mxPoint x="450" y="560" as="targetPoint" />
          </mxGeometry>
        </mxCell>
        <mxCell id="RHhL-44xYjDqkGJMa5_Y-39" value="ML-предсказания,&lt;div&gt;мед.выводы&lt;/div&gt;" style="edgeLabel;html=1;align=center;verticalAlign=middle;resizable=0;points=[];" vertex="1" connectable="0" parent="RHhL-44xYjDqkGJMa5_Y-38">
          <mxGeometry x="-0.2912" y="2" relative="1" as="geometry">
            <mxPoint as="offset" />
          </mxGeometry>
        </mxCell>
        <mxCell id="RHhL-44xYjDqkGJMa5_Y-40" value="" style="endArrow=classic;html=1;rounded=0;exitX=0.5;exitY=1;exitDx=0;exitDy=0;entryX=0.75;entryY=0;entryDx=0;entryDy=0;" edge="1" parent="1" source="RHhL-44xYjDqkGJMa5_Y-11" target="RHhL-44xYjDqkGJMa5_Y-21">
          <mxGeometry width="50" height="50" relative="1" as="geometry">
            <mxPoint x="400" y="610" as="sourcePoint" />
            <mxPoint x="450" y="560" as="targetPoint" />
          </mxGeometry>
        </mxCell>
        <mxCell id="RHhL-44xYjDqkGJMa5_Y-41" value="транзакции,&lt;div&gt;счета,&lt;/div&gt;&lt;div&gt;кредиты&lt;/div&gt;" style="edgeLabel;html=1;align=center;verticalAlign=middle;resizable=0;points=[];" vertex="1" connectable="0" parent="RHhL-44xYjDqkGJMa5_Y-40">
          <mxGeometry x="-0.3518" y="-1" relative="1" as="geometry">
            <mxPoint y="1" as="offset" />
          </mxGeometry>
        </mxCell>
        <mxCell id="RHhL-44xYjDqkGJMa5_Y-42" value="" style="endArrow=classic;html=1;rounded=0;exitX=1;exitY=0.5;exitDx=0;exitDy=0;entryX=0.5;entryY=0;entryDx=0;entryDy=0;" edge="1" parent="1" source="RHhL-44xYjDqkGJMa5_Y-2" target="RHhL-44xYjDqkGJMa5_Y-21">
          <mxGeometry width="50" height="50" relative="1" as="geometry">
            <mxPoint x="400" y="610" as="sourcePoint" />
            <mxPoint x="450" y="560" as="targetPoint" />
          </mxGeometry>
        </mxCell>
        <mxCell id="RHhL-44xYjDqkGJMa5_Y-43" value="отправка&amp;nbsp;&lt;div&gt;оперативных данных&lt;/div&gt;" style="edgeLabel;html=1;align=center;verticalAlign=middle;resizable=0;points=[];" vertex="1" connectable="0" parent="RHhL-44xYjDqkGJMa5_Y-42">
          <mxGeometry x="-0.1626" y="2" relative="1" as="geometry">
            <mxPoint y="1" as="offset" />
          </mxGeometry>
        </mxCell>
        <mxCell id="RHhL-44xYjDqkGJMa5_Y-44" value="&lt;p style=&quot;white-space-collapse: preserve; font-size: medium; text-align: start; margin: 0px;&quot;&gt;Общий аналитический слой&lt;/p&gt;" style="text;html=1;align=center;verticalAlign=middle;whiteSpace=wrap;rounded=0;" vertex="1" parent="1">
          <mxGeometry x="70" y="890" width="250" height="40" as="geometry" />
        </mxCell>
      </root>
    </mxGraphModel>
  </diagram>
</mxfile>
